<svg xmlns="http://www.w3.org/2000/svg" xmlns:xlink="http://www.w3.org/1999/xlink" fill="none" version="1.1" width="34" height="32" viewBox="0 0 34 32"><g style="mix-blend-mode:passthrough"><g style="mix-blend-mode:passthrough"></g><g style="mix-blend-mode:passthrough"><path d="M17.020885876464845,11.583917617797852C17.020885876464845,8.500587617797851,14.906285876464844,5.802667617797852,10.906255876464844,5.802667617797852C7.510415876464844,5.802667617797852,4.062505876464844,7.604747617797852,3.0000058764648436,12.948497617797852L1.2708358764648438,21.750567617797852C1.1770858764648438,22.22976761779785,1.1145858764648438,22.97976761779785,1.1145858764648438,23.36516761779785C1.1145858764648438,26.448467617797853,3.229165876464844,29.135967617797853,7.229165876464844,29.135967617797853C10.614585876464844,29.135967617797853,14.072885876464843,27.34436761779785,15.135385876464843,22.010967617797853L16.864585876464844,13.198497617797852C16.958385876464845,12.719337617797851,17.020885876464845,11.969337617797851,17.020885876464845,11.583917617797852ZM12.062485876464844,12.000587617797851C12.062485876464844,12.292247617797852,11.999985876464844,12.719337617797851,11.927085876464844,13.010997617797852L10.135415876464844,22.16726761779785C9.718755876464844,24.24016761779785,8.666665876464844,24.625567617797852,7.708335876464844,24.625567617797852C6.937505876464844,24.625567617797852,6.072915876464844,24.24016761779785,6.072915876464844,22.948467617797853C6.072915876464844,22.65686761779785,6.135415876464844,22.22976761779785,6.208335876464844,21.938067617797852L8.000005876464844,12.781837617797851C8.416665876464844,10.708917617797852,9.468755876464844,10.323497617797852,10.427085876464844,10.323497617797852C11.197885876464843,10.323497617797852,12.062485876464844,10.708917617797852,12.062485876464844,12.000587617797851ZM31.895885876464845,5.802667617797852L26.906285876464842,5.802667617797852L21.520885876464845,9.667247617797852L20.406285876464842,15.469337617797851L25.781285876464842,11.604747617797852L22.354185876464843,29.135967617797853L27.354185876464843,29.135967617797853L31.895885876464845,5.802667617797852Z" fill="#448BE0" fill-opacity="1"/></g></g></svg>