<svg xmlns="http://www.w3.org/2000/svg" xmlns:xlink="http://www.w3.org/1999/xlink" fill="none" version="1.1" width="34" height="32" viewBox="0 0 34 32"><g style="mix-blend-mode:passthrough"><g style="mix-blend-mode:passthrough"></g><g style="mix-blend-mode:passthrough"><path d="M17.020883373069765,11.583917617797852C17.020883373069765,8.500587617797851,14.906283373069764,5.802667617797852,10.906253373069763,5.802667617797852C7.510413373069763,5.802667617797852,4.062503373069763,7.604747617797852,3.000003373069763,12.948497617797852L1.2708333730697632,21.750567617797852C1.1770833730697632,22.22976761779785,1.1145833730697632,22.97976761779785,1.1145833730697632,23.36516761779785C1.1145833730697632,26.448467617797853,3.2291633730697633,29.135967617797853,7.229163373069763,29.135967617797853C10.614583373069763,29.135967617797853,14.072883373069763,27.34436761779785,15.135383373069763,22.010967617797853L16.864583373069763,13.198497617797852C16.958383373069765,12.719337617797851,17.020883373069765,11.969337617797851,17.020883373069765,11.583917617797852ZM12.062483373069764,12.000587617797851C12.062483373069764,12.292247617797852,11.999983373069764,12.719337617797851,11.927083373069763,13.010997617797852L10.135413373069763,22.16726761779785C9.718753373069763,24.24016761779785,8.666663373069763,24.625567617797852,7.708333373069763,24.625567617797852C6.937503373069763,24.625567617797852,6.072913373069763,24.24016761779785,6.072913373069763,22.948467617797853C6.072913373069763,22.65686761779785,6.135413373069763,22.22976761779785,6.208333373069763,21.938067617797852L8.000003373069763,12.781837617797851C8.416663373069763,10.708917617797852,9.468753373069763,10.323497617797852,10.427083373069763,10.323497617797852C11.197883373069763,10.323497617797852,12.062483373069764,10.708917617797852,12.062483373069764,12.000587617797851ZM33.71878337306976,11.760997617797852C33.71878337306976,7.948497617797852,31.385383373069764,5.802667617797852,27.635383373069764,5.802667617797852C23.156283373069762,5.802667617797852,20.249983373069764,8.083917617797852,19.479183373069763,12.646417617797852L24.468783373069762,12.646417617797852C24.916683373069763,10.875587617797851,25.937483373069764,10.323497617797852,27.031283373069762,10.323497617797852C28.052083373069763,10.323497617797852,28.666683373069763,10.948497617797852,28.666683373069763,12.063087617797851C28.666683373069763,13.240167617797852,28.052083373069763,13.927667617797852,26.802083373069763,15.208917617797852L17.427083373069763,24.65686761779785L16.499983373069764,29.135967617797853L30.708383373069765,29.135967617797853L31.635383373069764,24.625567617797852L23.802083373069763,24.625567617797852L29.979183373069763,18.49016761779785C31.218783373069762,17.24016761779785,33.71878337306976,15.177667617797852,33.71878337306976,11.760997617797852Z" fill="#448BE0" fill-opacity="1"/></g></g></svg>