<svg xmlns="http://www.w3.org/2000/svg" xmlns:xlink="http://www.w3.org/1999/xlink" fill="none" version="1.1" width="48" height="48" viewBox="0 0 48 48"><defs><clipPath id="master_svg0_15_2130"><g style="mix-blend-mode:passthrough"><rect x="0" y="0" width="48" height="48" rx="1.6551724672317505" fill="#FFFFFF" fill-opacity="1"/></g></clipPath><clipPath id="master_svg1_15_2120"><g style="mix-blend-mode:passthrough"><path d="M9.65517,0L37.931,0L48,9.93103L48,46.3448C48,47.259,47.259,48,46.3448,48L9.65517,48C8.741046,48,8,47.259,8,46.3448L8,1.65517C8,0.741046,8.741046,0,9.65517,0" fill-rule="evenodd" fill="#FFFFFF" fill-opacity="1"/></g></clipPath><clipPath id="master_svg2_15_2129"><g style="mix-blend-mode:passthrough" transform="matrix(0,1,-1,0,129.48334121704102,-10.516658782958999)"><path d="M82.5825,60.247832217041L91.1925,65.218851217041C92.0119,65.691921217041,92.5167,66.566181217041,92.5167,67.512321217041L92.5167,77.454341217041C92.5167,78.400541217041,92.0119,79.274741217041,91.1925,79.747841217041L82.5825,84.718841217041C81.7631,85.191941217041,80.7536,85.191941217041,79.93419,84.718841217041L71.32414,79.747841217041C70.504758,79.274741217041,70,78.400541217041,70,77.454341217041L70,67.512321217041C70,66.566181217041,70.504758,65.691921217041,71.32414,65.218851217041L79.93419,60.247832217041C80.7536,59.774763217041,81.7631,59.774763217041,82.5825,60.247832217041" fill-rule="evenodd" fill="#FFFFFF" fill-opacity="1"/></g></clipPath></defs><g style="mix-blend-mode:passthrough"><g style="mix-blend-mode:passthrough"><g style="mix-blend-mode:passthrough"></g><g style="mix-blend-mode:passthrough" clipPath="url(#master_svg0_15_2130)"><g style="mix-blend-mode:passthrough"><g style="mix-blend-mode:passthrough"><path d="M5.65517,0L33.931,0L44,9.93103L44,46.3448C44,47.259,43.259,48,42.3448,48L5.65517,48C4.741046,48,4,47.259,4,46.3448L4,1.65517C4,0.741046,4.741046,0,5.65517,0" fill-rule="evenodd" fill="#FFF0C9" fill-opacity="1"/></g><g style="mix-blend-mode:passthrough" clipPath="url(#master_svg1_15_2120)"><g style="mix-blend-mode:passthrough"><path d="M37,-1L49,11L38.65517,11C37.741046,11,37,10.259,37,9.3448L37,-1Z" fill-rule="evenodd" fill="#FFC83E" fill-opacity="1"/></g><g style="mix-blend-mode:passthrough"><g style="mix-blend-mode:passthrough" transform="matrix(0,1,-1,0,81.7416706085205,-22.258329391479506)"><path d="M64.5825,30.506161608520493L73.1925,35.47718060852049C74.0119,35.95025060852049,74.5167,36.82451060852049,74.5167,37.7706506085205L74.5167,47.7126706085205C74.5167,48.658870608520495,74.0119,49.53307060852049,73.1925,50.00617060852049L64.5825,54.977170608520495C63.7631,55.4502706085205,62.7536,55.4502706085205,61.93419,54.977170608520495L53.32414,50.00617060852049C52.504758,49.53307060852049,52,48.658870608520495,52,47.7126706085205L52,37.7706506085205C52,36.82451060852049,52.504758,35.95025060852049,53.32414,35.47718060852049L61.93419,30.506161608520493C62.7536,30.033092608520494,63.7631,30.033092608520494,64.5825,30.506161608520493" fill-rule="evenodd" fill="#FFC83E" fill-opacity="1"/></g><g style="mix-blend-mode:passthrough" clipPath="url(#master_svg2_15_2129)"><g style="mix-blend-mode:passthrough" transform="matrix(0,1,-1,0,128.9283925294876,-13.603376269340515)"><path d="M84.79838439941406,57.66250813007355L83.17338439941406,57.66250813007355L83.17338439941406,71.41210813007355L71.26588439941406,78.28690813007356L72.07838439941406,79.69420813007355L83.98588439941406,72.81940813007355L95.89348439941406,79.69430813007355L96.70598439941406,78.28700813007354L84.79838439941406,71.41220813007355L84.79838439941406,57.66250813007355Z" fill-rule="evenodd" fill="#FFF0C9" fill-opacity="1"/></g></g></g></g></g></g></g></g></svg>