<svg xmlns="http://www.w3.org/2000/svg" xmlns:xlink="http://www.w3.org/1999/xlink" fill="none" version="1.1" width="48" height="48" viewBox="0 0 48 48"><g style="mix-blend-mode:passthrough"><g style="mix-blend-mode:passthrough"><ellipse cx="24" cy="24" rx="24" ry="24" fill="#DCECFF" fill-opacity="1"/></g><g style="mix-blend-mode:passthrough"><g style="mix-blend-mode:passthrough"></g><g style="mix-blend-mode:passthrough"><rect x="15" y="14" width="18" height="20" rx="1" fill="#FFFFFF" fill-opacity="1"/></g><g style="mix-blend-mode:passthrough"><path d="M20,19Q20,19.098489999999998,19.98079,19.19509Q19.961570000000002,19.29169,19.92388,19.38268Q19.88619,19.47368,19.83147,19.55557Q19.77675,19.63746,19.70711,19.70711Q19.63746,19.77675,19.55557,19.83147Q19.47368,19.88619,19.38268,19.92388Q19.29169,19.961570000000002,19.19509,19.98079Q19.098489999999998,20,19,20Q18.901509,20,18.80491,19.98079Q18.708311,19.961570000000002,18.617316,19.92388Q18.526322,19.88619,18.44443,19.83147Q18.362537,19.77675,18.292893,19.70711Q18.223249,19.63746,18.16853,19.55557Q18.113811,19.47368,18.0761205,19.38268Q18.0384294,19.29169,18.0192147,19.19509Q18,19.098489999999998,18,19Q18,18.901509,18.0192147,18.80491Q18.0384294,18.708311,18.0761205,18.617316Q18.113811,18.526322,18.16853,18.44443Q18.223249,18.362537,18.292893,18.292893Q18.362537,18.223249,18.44443,18.16853Q18.526322,18.113811,18.617316,18.0761205Q18.708311,18.0384294,18.80491,18.0192147Q18.901509,18,19,18Q19.098489999999998,18,19.19509,18.0192147Q19.29169,18.0384294,19.38268,18.0761205Q19.47368,18.113811,19.55557,18.16853Q19.63746,18.223249,19.70711,18.292893Q19.77675,18.362537,19.83147,18.44443Q19.88619,18.526322,19.92388,18.617316Q19.961570000000002,18.708311,19.98079,18.80491Q20,18.901509,20,19ZM22,19L22,19Q22,18.901509,22.01921,18.80491Q22.038429999999998,18.708311,22.07612,18.617316Q22.11381,18.526322,22.16853,18.44443Q22.22325,18.362537,22.29289,18.292893Q22.36254,18.223249,22.44443,18.16853Q22.52632,18.113811,22.61732,18.0761205Q22.70831,18.0384294,22.80491,18.0192147Q22.901510000000002,18,23,18L29,18Q29.0985,18,29.1951,18.0192147Q29.2917,18.0384294,29.3827,18.0761205Q29.4737,18.113811,29.5556,18.16853Q29.6375,18.223249,29.7071,18.292893Q29.776699999999998,18.362537,29.8315,18.44443Q29.886200000000002,18.526322,29.9239,18.617316Q29.9616,18.708311,29.980800000000002,18.80491Q30,18.901509,30,19L30,19Q30,19.098489999999998,29.980800000000002,19.19509Q29.9616,19.29169,29.9239,19.38268Q29.886200000000002,19.47368,29.8315,19.55557Q29.776699999999998,19.63746,29.7071,19.70711Q29.6375,19.77675,29.5556,19.83147Q29.4737,19.88619,29.3827,19.92388Q29.2917,19.961570000000002,29.1951,19.98079Q29.0985,20,29,20L23,20Q22.901510000000002,20,22.80491,19.98079Q22.70831,19.961570000000002,22.61732,19.92388Q22.52632,19.88619,22.44443,19.83147Q22.36254,19.77675,22.29289,19.70711Q22.22325,19.63746,22.16853,19.55557Q22.11381,19.47368,22.07612,19.38268Q22.038429999999998,19.29169,22.01921,19.19509Q22,19.098489999999998,22,19ZM20,24Q20,24.098489999999998,19.98079,24.19509Q19.961570000000002,24.29169,19.92388,24.38268Q19.88619,24.47368,19.83147,24.55557Q19.77675,24.63746,19.70711,24.70711Q19.63746,24.77675,19.55557,24.83147Q19.47368,24.88619,19.38268,24.92388Q19.29169,24.961570000000002,19.19509,24.98078Q19.098489999999998,25,19,25Q18.901509,25,18.80491,24.98078Q18.708311,24.961570000000002,18.617316,24.92388Q18.526322,24.88619,18.44443,24.83147Q18.362537,24.77675,18.292893,24.70711Q18.223249,24.63746,18.16853,24.55557Q18.113811,24.47368,18.0761205,24.38268Q18.0384294,24.29169,18.0192147,24.19509Q18,24.098489999999998,18,24Q18,23.901510000000002,18.0192147,23.80491Q18.0384294,23.70831,18.0761205,23.61732Q18.113811,23.52632,18.16853,23.44443Q18.223249,23.36254,18.292893,23.29289Q18.362537,23.22325,18.44443,23.16853Q18.526322,23.11381,18.617316,23.07612Q18.708311,23.038429999999998,18.80491,23.01921Q18.901509,23,19,23Q19.098489999999998,23,19.19509,23.01921Q19.29169,23.038429999999998,19.38268,23.07612Q19.47368,23.11381,19.55557,23.16853Q19.63746,23.22325,19.70711,23.29289Q19.77675,23.36254,19.83147,23.44443Q19.88619,23.52632,19.92388,23.61732Q19.961570000000002,23.70831,19.98079,23.80491Q20,23.901510000000002,20,24ZM22,24L22,24Q22,23.901510000000002,22.01921,23.80491Q22.038429999999998,23.70831,22.07612,23.61732Q22.11381,23.52632,22.16853,23.44443Q22.22325,23.36254,22.29289,23.29289Q22.36254,23.22325,22.44443,23.16853Q22.52632,23.11381,22.61732,23.07612Q22.70831,23.038429999999998,22.80491,23.01921Q22.901510000000002,23,23,23L29,23Q29.0985,23,29.1951,23.01921Q29.2917,23.038429999999998,29.3827,23.07612Q29.4737,23.11381,29.5556,23.16853Q29.6375,23.22325,29.7071,23.29289Q29.776699999999998,23.36254,29.8315,23.44443Q29.886200000000002,23.52632,29.9239,23.61732Q29.9616,23.70831,29.980800000000002,23.80491Q30,23.901510000000002,30,24L30,24Q30,24.098489999999998,29.980800000000002,24.19509Q29.9616,24.29169,29.9239,24.38268Q29.886200000000002,24.47368,29.8315,24.55557Q29.776699999999998,24.63746,29.7071,24.70711Q29.6375,24.77675,29.5556,24.83147Q29.4737,24.88619,29.3827,24.92388Q29.2917,24.961570000000002,29.1951,24.98078Q29.0985,25,29,25L23,25Q22.901510000000002,25,22.80491,24.98078Q22.70831,24.961570000000002,22.61732,24.92388Q22.52632,24.88619,22.44443,24.83147Q22.36254,24.77675,22.29289,24.70711Q22.22325,24.63746,22.16853,24.55557Q22.11381,24.47368,22.07612,24.38268Q22.038429999999998,24.29169,22.01921,24.19509Q22,24.098489999999998,22,24ZM20,29Q20,29.0985,19.98079,29.1951Q19.961570000000002,29.2917,19.92388,29.3827Q19.88619,29.4737,19.83147,29.5556Q19.77675,29.6375,19.70711,29.7071Q19.63746,29.776699999999998,19.55557,29.8315Q19.47368,29.886200000000002,19.38268,29.9239Q19.29169,29.9616,19.19509,29.980800000000002Q19.098489999999998,30,19,30Q18.901509,30,18.80491,29.980800000000002Q18.708311,29.9616,18.617316,29.9239Q18.526322,29.886200000000002,18.44443,29.8315Q18.362537,29.776699999999998,18.292893,29.7071Q18.223249,29.6375,18.16853,29.5556Q18.113811,29.4737,18.0761205,29.3827Q18.0384294,29.2917,18.0192147,29.1951Q18,29.0985,18,29Q18,28.9015,18.0192147,28.8049Q18.0384294,28.7083,18.0761205,28.6173Q18.113811,28.5263,18.16853,28.4444Q18.223249,28.3625,18.292893,28.2929Q18.362537,28.2232,18.44443,28.1685Q18.526322,28.113799999999998,18.617316,28.0761Q18.708311,28.0384,18.80491,28.019199999999998Q18.901509,28,19,28Q19.098489999999998,28,19.19509,28.019199999999998Q19.29169,28.0384,19.38268,28.0761Q19.47368,28.113799999999998,19.55557,28.1685Q19.63746,28.2232,19.70711,28.2929Q19.77675,28.3625,19.83147,28.4444Q19.88619,28.5263,19.92388,28.6173Q19.961570000000002,28.7083,19.98079,28.8049Q20,28.9015,20,29ZM22,29L22,29Q22,28.9015,22.01921,28.8049Q22.038429999999998,28.7083,22.07612,28.6173Q22.11381,28.5263,22.16853,28.4444Q22.22325,28.3625,22.29289,28.2929Q22.36254,28.2232,22.44443,28.1685Q22.52632,28.113799999999998,22.61732,28.0761Q22.70831,28.0384,22.80491,28.019199999999998Q22.901510000000002,28,23,28L29,28Q29.0985,28,29.1951,28.019199999999998Q29.2917,28.0384,29.3827,28.0761Q29.4737,28.113799999999998,29.5556,28.1685Q29.6375,28.2232,29.7071,28.2929Q29.776699999999998,28.3625,29.8315,28.4444Q29.886200000000002,28.5263,29.9239,28.6173Q29.9616,28.7083,29.980800000000002,28.8049Q30,28.9015,30,29L30,29Q30,29.0985,29.980800000000002,29.1951Q29.9616,29.2917,29.9239,29.3827Q29.886200000000002,29.4737,29.8315,29.5556Q29.776699999999998,29.6375,29.7071,29.7071Q29.6375,29.776699999999998,29.5556,29.8315Q29.4737,29.886200000000002,29.3827,29.9239Q29.2917,29.9616,29.1951,29.980800000000002Q29.0985,30,29,30L23,30Q22.901510000000002,30,22.80491,29.980800000000002Q22.70831,29.9616,22.61732,29.9239Q22.52632,29.886200000000002,22.44443,29.8315Q22.36254,29.776699999999998,22.29289,29.7071Q22.22325,29.6375,22.16853,29.5556Q22.11381,29.4737,22.07612,29.3827Q22.038429999999998,29.2917,22.01921,29.1951Q22,29.0985,22,29Z" fill="#DCECFF" fill-opacity="1"/></g></g></g></svg>