<svg xmlns="http://www.w3.org/2000/svg" xmlns:xlink="http://www.w3.org/1999/xlink" fill="none" version="1.1" width="48" height="48" viewBox="0 0 48 48"><g style="mix-blend-mode:passthrough"><g style="mix-blend-mode:passthrough"><ellipse cx="24" cy="24" rx="24" ry="24" fill="#DCECFF" fill-opacity="1"/></g><g style="mix-blend-mode:passthrough"><g style="mix-blend-mode:passthrough"></g><g style="mix-blend-mode:passthrough"><rect x="14" y="15" width="20" height="5" rx="1" fill="#FFFFFF" fill-opacity="1"/></g><g style="mix-blend-mode:passthrough"><path d="M16,17.5Q16,17.401509,16.0192147,17.30491Q16.0384294,17.208311,16.0761205,17.117316Q16.113811,17.026322,16.16853,16.94443Q16.223249,16.862537,16.292893,16.792893Q16.362537,16.723249,16.44443,16.66853Q16.526322,16.613811,16.617316,16.5761205Q16.708311,16.5384294,16.80491,16.5192147Q16.901509,16.5,17,16.5Q17.098489999999998,16.5,17.19509,16.5192147Q17.29169,16.5384294,17.38268,16.5761205Q17.47368,16.613811,17.55557,16.66853Q17.63746,16.723249,17.70711,16.792893Q17.77675,16.862537,17.83147,16.94443Q17.88619,17.026322,17.92388,17.117316Q17.961570000000002,17.208311,17.98079,17.30491Q18,17.401509,18,17.5Q18,17.598489999999998,17.98079,17.69509Q17.961570000000002,17.79169,17.92388,17.88268Q17.88619,17.97368,17.83147,18.05557Q17.77675,18.13746,17.70711,18.20711Q17.63746,18.27675,17.55557,18.33147Q17.47368,18.38619,17.38268,18.42388Q17.29169,18.461570000000002,17.19509,18.48079Q17.098489999999998,18.5,17,18.5Q16.901509,18.5,16.80491,18.48079Q16.708311,18.461570000000002,16.617316,18.42388Q16.526322,18.38619,16.44443,18.33147Q16.362537,18.27675,16.292893,18.20711Q16.223249,18.13746,16.16853,18.05557Q16.113811,17.97368,16.0761205,17.88268Q16.0384294,17.79169,16.0192147,17.69509Q16,17.598489999999998,16,17.5ZM19,17.5Q19,17.401509,19.01921,17.30491Q19.038429999999998,17.208311,19.07612,17.117316Q19.11381,17.026322,19.16853,16.94443Q19.22325,16.862537,19.29289,16.792893Q19.36254,16.723249,19.44443,16.66853Q19.52632,16.613811,19.61732,16.5761205Q19.70831,16.5384294,19.80491,16.5192147Q19.901510000000002,16.5,20,16.5Q20.098489999999998,16.5,20.19509,16.5192147Q20.29169,16.5384294,20.38268,16.5761205Q20.47368,16.613811,20.55557,16.66853Q20.63746,16.723249,20.70711,16.792893Q20.77675,16.862537,20.83147,16.94443Q20.88619,17.026322,20.92388,17.117316Q20.961570000000002,17.208311,20.98078,17.30491Q21,17.401509,21,17.5Q21,17.598489999999998,20.98078,17.69509Q20.961570000000002,17.79169,20.92388,17.88268Q20.88619,17.97368,20.83147,18.05557Q20.77675,18.13746,20.70711,18.20711Q20.63746,18.27675,20.55557,18.33147Q20.47368,18.38619,20.38268,18.42388Q20.29169,18.461570000000002,20.19509,18.48079Q20.098489999999998,18.5,20,18.5Q19.901510000000002,18.5,19.80491,18.48079Q19.70831,18.461570000000002,19.61732,18.42388Q19.52632,18.38619,19.44443,18.33147Q19.36254,18.27675,19.29289,18.20711Q19.22325,18.13746,19.16853,18.05557Q19.11381,17.97368,19.07612,17.88268Q19.038429999999998,17.79169,19.01921,17.69509Q19,17.598489999999998,19,17.5Z" fill="#DCECFF" fill-opacity="1"/></g><g style="mix-blend-mode:passthrough"><rect x="14" y="22" width="20" height="5" rx="1" fill="#FFFFFF" fill-opacity="1"/></g><g style="mix-blend-mode:passthrough"><path d="M16,24.5Q16,24.401509,16.0192147,24.30491Q16.0384294,24.208311,16.0761205,24.117316Q16.113811,24.026322,16.16853,23.94443Q16.223249,23.862537,16.292893,23.792893Q16.362537,23.723249,16.44443,23.66853Q16.526322,23.613811,16.617316,23.5761205Q16.708311,23.5384294,16.80491,23.5192147Q16.901509,23.5,17,23.5Q17.098489999999998,23.5,17.19509,23.5192147Q17.29169,23.5384294,17.38268,23.5761205Q17.47368,23.613811,17.55557,23.66853Q17.63746,23.723249,17.70711,23.792893Q17.77675,23.862537,17.83147,23.94443Q17.88619,24.026322,17.92388,24.117316Q17.961570000000002,24.208311,17.98079,24.30491Q18,24.401509,18,24.5Q18,24.598489999999998,17.98079,24.69509Q17.961570000000002,24.79169,17.92388,24.88268Q17.88619,24.97368,17.83147,25.05557Q17.77675,25.13746,17.70711,25.20711Q17.63746,25.27675,17.55557,25.33147Q17.47368,25.38619,17.38268,25.42388Q17.29169,25.461570000000002,17.19509,25.48079Q17.098489999999998,25.5,17,25.5Q16.901509,25.5,16.80491,25.48079Q16.708311,25.461570000000002,16.617316,25.42388Q16.526322,25.38619,16.44443,25.33147Q16.362537,25.27675,16.292893,25.20711Q16.223249,25.13746,16.16853,25.05557Q16.113811,24.97368,16.0761205,24.88268Q16.0384294,24.79169,16.0192147,24.69509Q16,24.598489999999998,16,24.5ZM19,24.5Q19,24.401509,19.01921,24.30491Q19.038429999999998,24.208311,19.07612,24.117316Q19.11381,24.026322,19.16853,23.94443Q19.22325,23.862537,19.29289,23.792893Q19.36254,23.723249,19.44443,23.66853Q19.52632,23.613811,19.61732,23.5761205Q19.70831,23.5384294,19.80491,23.5192147Q19.901510000000002,23.5,20,23.5Q20.098489999999998,23.5,20.19509,23.5192147Q20.29169,23.5384294,20.38268,23.5761205Q20.47368,23.613811,20.55557,23.66853Q20.63746,23.723249,20.70711,23.792893Q20.77675,23.862537,20.83147,23.94443Q20.88619,24.026322,20.92388,24.117316Q20.961570000000002,24.208311,20.98078,24.30491Q21,24.401509,21,24.5Q21,24.598489999999998,20.98078,24.69509Q20.961570000000002,24.79169,20.92388,24.88268Q20.88619,24.97368,20.83147,25.05557Q20.77675,25.13746,20.70711,25.20711Q20.63746,25.27675,20.55557,25.33147Q20.47368,25.38619,20.38268,25.42388Q20.29169,25.461570000000002,20.19509,25.48079Q20.098489999999998,25.5,20,25.5Q19.901510000000002,25.5,19.80491,25.48079Q19.70831,25.461570000000002,19.61732,25.42388Q19.52632,25.38619,19.44443,25.33147Q19.36254,25.27675,19.29289,25.20711Q19.22325,25.13746,19.16853,25.05557Q19.11381,24.97368,19.07612,24.88268Q19.038429999999998,24.79169,19.01921,24.69509Q19,24.598489999999998,19,24.5Z" fill="#DCECFF" fill-opacity="1"/></g><g style="mix-blend-mode:passthrough"><rect x="14" y="29" width="20" height="5" rx="1" fill="#FFFFFF" fill-opacity="1"/></g><g style="mix-blend-mode:passthrough"><path d="M16,31.5Q16,31.401509,16.0192147,31.30491Q16.0384294,31.208311,16.0761205,31.117316Q16.113811,31.026322,16.16853,30.94443Q16.223249,30.862537,16.292893,30.792893Q16.362537,30.723249,16.44443,30.66853Q16.526322,30.613811,16.617316,30.5761205Q16.708311,30.5384294,16.80491,30.5192147Q16.901509,30.5,17,30.5Q17.098489999999998,30.5,17.19509,30.5192147Q17.29169,30.5384294,17.38268,30.5761205Q17.47368,30.613811,17.55557,30.66853Q17.63746,30.723249,17.70711,30.792893Q17.77675,30.862537,17.83147,30.94443Q17.88619,31.026322,17.92388,31.117316Q17.961570000000002,31.208311,17.98079,31.30491Q18,31.401509,18,31.5Q18,31.598489999999998,17.98079,31.69509Q17.961570000000002,31.79169,17.92388,31.88268Q17.88619,31.97368,17.83147,32.05557Q17.77675,32.13746,17.70711,32.20711Q17.63746,32.27675,17.55557,32.33147Q17.47368,32.38619,17.38268,32.42388Q17.29169,32.46157,17.19509,32.48079Q17.098489999999998,32.5,17,32.5Q16.901509,32.5,16.80491,32.48079Q16.708311,32.46157,16.617316,32.42388Q16.526322,32.38619,16.44443,32.33147Q16.362537,32.27675,16.292893,32.20711Q16.223249,32.13746,16.16853,32.05557Q16.113811,31.97368,16.0761205,31.88268Q16.0384294,31.79169,16.0192147,31.69509Q16,31.598489999999998,16,31.5ZM19,31.5Q19,31.401509,19.01921,31.30491Q19.038429999999998,31.208311,19.07612,31.117316Q19.11381,31.026322,19.16853,30.94443Q19.22325,30.862537,19.29289,30.792893Q19.36254,30.723249,19.44443,30.66853Q19.52632,30.613811,19.61732,30.5761205Q19.70831,30.5384294,19.80491,30.5192147Q19.901510000000002,30.5,20,30.5Q20.098489999999998,30.5,20.19509,30.5192147Q20.29169,30.5384294,20.38268,30.5761205Q20.47368,30.613811,20.55557,30.66853Q20.63746,30.723249,20.70711,30.792893Q20.77675,30.862537,20.83147,30.94443Q20.88619,31.026322,20.92388,31.117316Q20.961570000000002,31.208311,20.98078,31.30491Q21,31.401509,21,31.5Q21,31.598489999999998,20.98078,31.69509Q20.961570000000002,31.79169,20.92388,31.88268Q20.88619,31.97368,20.83147,32.05557Q20.77675,32.13746,20.70711,32.20711Q20.63746,32.27675,20.55557,32.33147Q20.47368,32.38619,20.38268,32.42388Q20.29169,32.46157,20.19509,32.48079Q20.098489999999998,32.5,20,32.5Q19.901510000000002,32.5,19.80491,32.48079Q19.70831,32.46157,19.61732,32.42388Q19.52632,32.38619,19.44443,32.33147Q19.36254,32.27675,19.29289,32.20711Q19.22325,32.13746,19.16853,32.05557Q19.11381,31.97368,19.07612,31.88268Q19.038429999999998,31.79169,19.01921,31.69509Q19,31.598489999999998,19,31.5Z" fill="#DCECFF" fill-opacity="1"/></g></g></g></svg>