<svg xmlns="http://www.w3.org/2000/svg" xmlns:xlink="http://www.w3.org/1999/xlink" fill="none" version="1.1" width="26" height="16" viewBox="0 0 26 16"><g style="mix-blend-mode:passthrough"><g style="mix-blend-mode:passthrough"><path d="M2,0L24,0C25.1046,0,26,0.895431,26,2L26,14L2,14C0.895431,14,0,13.1046,0,12L0,2C0,0.895431,0.895431,0,2,0" fill-rule="evenodd" fill="#448BE0" fill-opacity="1"/></g><g style="mix-blend-mode:passthrough" transform="matrix(1,0,0,-1,0,32)"><path d="M23,16.000000000000114L26,18L23,18L23,16.000000000000114Z" fill-rule="evenodd" fill="#2467B7" fill-opacity="1"/></g><g style="mix-blend-mode:passthrough"><path d="M7.875,8.35221L12.32031,8.35221L12.32031,11.18555L11.71875,11.18555L11.71875,10.7168L8.47656,10.7168L8.47656,11.18555L7.875,11.18555L7.875,8.35221ZM5.101562,7.21159Q6.25,5.54232,6.82812,3.5188800000000002L7.4375,3.69075Q7.09896,4.7219999999999995,6.69531,5.5944L6.69531,11.18555L6.11719,11.18555L6.11719,6.7194Q5.757812,7.33659,5.359375,7.85221Q5.234375,7.52409,5.101562,7.21159ZM11.71875,8.88346L8.47656,8.88346L8.47656,10.18555L11.71875,10.18555L11.71875,8.88346ZM7.35938,4.518879999999999L9.91146,4.518879999999999Q9.67708,4.15169,9.42188,3.79232L9.94531,3.5188800000000002Q10.22656,3.91211,10.5,4.3522099999999995L10.16146,4.518879999999999L12.85938,4.518879999999999L12.85938,5.0657499999999995L7.35938,5.0657499999999995L7.35938,4.518879999999999ZM7.78906,5.8522099999999995L12.39844,5.8522099999999995L12.39844,6.38346L7.78906,6.38346L7.78906,5.8522099999999995ZM7.78906,7.01888L12.39844,7.01888L12.39844,7.55013L7.78906,7.55013L7.78906,7.01888ZM16.0312,3.85221L15.9297,4.00586Q16.9219,4.9459599999999995,17.835900000000002,5.9094999999999995L17.4062,6.35221Q16.5703,5.41732,15.625,4.50586Q14.85938,5.61003,14.04688,6.35221L17.2578,6.35221Q17.210900000000002,7.45117,17.1797,7.89388Q17.1406,9.07357,16.1172,9.07357Q15.7031,9.07357,15.1016,9.05013Q15.0547,8.70638,14.99219,8.42513Q15.5156,8.51107,15.9922,8.51888Q16.5547,8.52669,16.5938,7.79232Q16.6172,7.4095,16.6406,6.89909L14.57031,6.89909L14.57031,9.930340000000001Q14.57031,10.35221,15.0391,10.35221L16.3203,10.35221Q16.9375,10.35221,17.0156,9.94857Q17.1094,9.576170000000001,17.1562,9.01888Q17.460900000000002,9.14388,17.773400000000002,9.24544Q17.6953,9.75846,17.5781,10.19336Q17.3828,10.91471,16.476599999999998,10.91471L14.92188,10.91471Q13.96094,10.91471,13.96094,9.98503L13.96094,6.44596Q13.71094,6.68034,13.46875,6.87565Q13.23438,6.51628,13.10938,6.347Q14.39062,5.42773,15.3125,3.85221L16.0312,3.85221ZM19.773400000000002,3.85221L20.398400000000002,3.85221L20.398400000000002,10.22461Q20.398400000000002,11.1595,19.4531,11.16732Q19.125,11.16732,18.226599999999998,11.1595Q18.1875,10.83659,18.101599999999998,10.51888Q18.9297,10.51888,19.2656,10.51888Q19.773400000000002,10.51888,19.773400000000002,10.0293L19.773400000000002,3.85221ZM18.7422,9.18555L18.1406,9.18555L18.1406,4.518879999999999L18.7422,4.518879999999999L18.7422,9.18555Z" fill="#FFFFFF" fill-opacity="1"/></g></g></svg>