<svg xmlns="http://www.w3.org/2000/svg" xmlns:xlink="http://www.w3.org/1999/xlink" fill="none" version="1.1" width="15.996337890625" height="16" viewBox="0 0 15.996337890625 16"><g style="mix-blend-mode:passthrough"><g style="mix-blend-mode:passthrough"></g><g style="mix-blend-mode:passthrough"><path d="M2.8047587871239013,6.968830939788086L3.2997333301239014,7.267633357788086L3.8045153301239014,7.493438357788086L3.8045153301239014,11.423197357788087L7.999705330123901,13.845847357788086L12.1948853301239,11.423197357788087L12.1948853301239,7.632919357788086L13.194665330123902,7.216523357788086L13.194665330123902,11.423197357788087C13.194665330123902,11.780457357788086,13.004165330123902,12.110587357788086,12.694785330123901,12.289217357788086L8.499605330123902,14.711867357788087C8.190275330123901,14.890497357788085,7.809165330123902,14.890497357788085,7.499835330123902,14.711867357788087L3.304643330123901,12.289217357788086C2.995314330123901,12.110587357788086,2.8047587871239013,11.780457357788086,2.8047587871239013,11.423197357788087L2.8047587871239013,6.968830939788086Z" fill-rule="evenodd" fill="#448BE0" fill-opacity="1"/></g><g style="mix-blend-mode:passthrough"><rect x="13.996780395507812" y="6" width="0.9997699856758118" height="3" rx="0.4998849928379059" fill="#448BE0" fill-opacity="1"/></g><g style="mix-blend-mode:passthrough"><path d="M15.558814119982719,6.444299401741028C15.65921411998272,6.3959594017410275,15.74061411998272,6.315459401741028,15.79001411998272,6.2155694017410275C15.912414119982719,5.968089401741028,15.811114119982719,5.668159401741027,15.56371411998272,5.545669401741028L8.219894119982719,1.9101996017410279C8.080164119982719,1.8410260017410278,7.916164119982719,1.8410260017410278,7.776424119982719,1.9101996017410279L0.4442831199827194,5.539889401741028C0.3429001199827194,5.590069401741028,0.2615332199827194,5.673169401741028,0.21347901998271943,5.775599401741028C0.09619961998271942,6.025589401741028,0.20373431998271943,6.323339401741028,0.45366411998271944,6.440649401741028L7.89174411998272,9.931759401741028C8.02784411998272,9.995639401741029,8.18547411998272,9.994859401741028,8.32093411998272,9.929629401741028L15.558814119982719,6.444299401741028ZM7.998134119982719,2.915599401741028L14.20231411998272,5.9872694017410275L8.10134411998272,8.924599401741027L1.8173241199827195,5.975249401741028L7.998134119982719,2.915599401741028Z" fill-rule="evenodd" fill="#448BE0" fill-opacity="1"/></g></g></svg>