<svg xmlns="http://www.w3.org/2000/svg" xmlns:xlink="http://www.w3.org/1999/xlink" fill="none" version="1.1" width="16" height="16" viewBox="0 0 16 16"><defs><radialGradient cx="0" cy="0" r="1" gradientUnits="userSpaceOnUse" id="master_svg0_1_483" gradientTransform="translate(7.9999998807907104 8.00000025331974) rotate(0) scale(6.928203105926514 6.9282026708561935)"><stop offset="57.817912101745605%" stop-color="#3A9E13" stop-opacity="1"/><stop offset="57.900917530059814%" stop-color="#448BE0" stop-opacity="1"/><stop offset="75%" stop-color="#448BE0" stop-opacity="1"/><stop offset="91.46648645401001%" stop-color="#448BE0" stop-opacity="1"/><stop offset="91.71896576881409%" stop-color="#3A9E13" stop-opacity="1"/></radialGradient><linearGradient x1="0.5" y1="0" x2="0.5" y2="0.5" id="master_svg1_1_476"><stop offset="0%" stop-color="#399E12" stop-opacity="1"/><stop offset="100%" stop-color="#438BE0" stop-opacity="1"/></linearGradient></defs><g style="mix-blend-mode:passthrough"><g style="mix-blend-mode:passthrough"></g><g style="mix-blend-mode:passthrough"><path d="M8.499996774864197,0.28867553255558015L14.428196774864197,3.7113205325555803C14.737596774864198,3.88996053255558,14.928196774864197,4.22008053255558,14.928196774864197,4.57735053255558L14.928196774864197,9.00001053255558L13.928196774864197,9.00001053255558L13.928196774864197,4.57735053255558L7.999996774864197,1.1547005325555801L2.0717967748641968,4.57735053255558L2.0717967748641968,11.42260053255558L7.999996774864197,14.84530053255558L10.000016774864196,13.69060053255558L10.000016774864196,14.84530053255558L8.499996774864197,15.71130053255558C8.190596774864197,15.89000053255558,7.809396774864196,15.89000053255558,7.499996774864197,15.71130053255558L1.5717967748641968,12.28870053255558C1.2623957748641967,12.11000053255558,1.0717967748641968,11.77990053255558,1.0717967748641968,11.42260053255558L1.0717967748641968,4.57735053255558C1.0717967748641968,4.22008053255558,1.2623957748641967,3.88996053255558,1.5717967748641968,3.7113205325555803L7.499996774864197,0.28867553255558015C7.809396774864196,0.11004233255558013,8.190596774864197,0.11004233255558013,8.499996774864197,0.28867553255558015Z" fill-rule="evenodd" fill="url(#master_svg0_1_483)" fill-opacity="1"/></g><g style="mix-blend-mode:passthrough" transform="matrix(1,0,0,-1,0,29.866025924682617)"><path d="M7.499952222709656,14.933012962341309L8.499952222709656,14.933012962341309L8.499952222709656,21.64429296234131L14.312222222709655,25.00001296234131L13.812222222709655,25.86601296234131L8.000022222709656,22.510352962341308L2.1878222227096558,25.86601296234131L1.6878222227096558,25.00001296234131L7.499952222709656,21.644362962341308L7.499952222709656,14.933012962341309ZM8.000012222709657,21.933042962341307L8.000032222709656,21.93301296234131L8.000002222709655,21.93301296234131L8.000012222709657,21.933042962341307Z" fill-rule="evenodd" fill="#D8D8D8" fill-opacity="1"/><path d="M8.499952222709656,20.93301296234131L8.499952222709656,14.933012962341309L7.499952222709656,14.933012962341309L7.499952222709656,21.644362962341308L1.6878222227096558,25.00001296234131L2.1878222227096558,25.86601296234131L3.053852222709656,25.36601296234131L7.3850422227096555,22.86541296234131L8.000022222709656,22.510352962341308L8.000032222709656,22.510362962341308L8.614992222709656,22.86541296234131L12.946222222709656,25.36601296234131L13.812222222709655,25.86601296234131L14.312222222709655,25.00001296234131L13.446222222709656,24.50000296234131L9.117132222709657,22.000612962341307L8.499952222709656,21.64429296234131L8.499952222709656,20.93301296234131ZM8.000032222709656,21.93301296234131L8.000012222709657,21.933042962341307L8.000002222709655,21.93301296234131L8.000032222709656,21.93301296234131Z" fill-rule="evenodd" fill="url(#master_svg1_1_476)" fill-opacity="1"/></g><g style="mix-blend-mode:passthrough"><path d="M14,10L13,10L13,12L11,12L11,13L13,13L13,15L14,15L14,13L16,13L16,12L14,12L14,10Z" fill-rule="evenodd" fill="#F4B125" fill-opacity="1"/></g></g></svg>