<svg xmlns="http://www.w3.org/2000/svg" xmlns:xlink="http://www.w3.org/1999/xlink" fill="none" version="1.1" width="14" height="14" viewBox="0 0 14 14"><defs><clipPath id="master_svg0_673_0883"><rect x="0" y="0" width="14" height="14" rx="0"/></clipPath></defs><g clip-path="url(#master_svg0_673_0883)"><g><path d="M9.387086875,5.8450516796875L7.736836875,4.1953916796875L10.211926875,1.7208886796875C10.439716875,1.4931656796875,10.808966875,1.4931656796875,11.036796875,1.7208886796875L11.862196875,2.5457216796875C12.089896875,2.7735116796875,12.089896875,3.1427616796875,11.862196875,3.3705516796875L9.387086875,5.8456416796875L9.387086875,5.8450516796875ZM8.562256875,6.6704716796875L2.7872568749999997,12.4454716796875C2.559466875,12.6731716796875,2.190216875,12.6731716796875,1.962421875,12.4454716796875L1.137588875,11.6200716796875C0.909865975,11.3922716796875,0.909865975,11.0230116796875,1.137588875,10.7952216796875L6.912586875,5.0202216796875L8.562256875,6.6704716796875ZM5.674756875,1.3084718883035L6.487336875,1.7191386796875001L7.324426875,1.3084717839955L6.928336875,2.1601386796875L7.325006875,2.9581416796875L6.517676875,2.5708016796875L5.674756875,2.9581416796875L6.076676875,2.1298046796875L5.674176875,1.3084716796875L5.674756875,1.3084718883035ZM11.449796875,5.4326416796875L12.262296875,5.8438916796875L13.099396875,5.4332216796875L12.702796875,6.2848916796875L13.099396875,7.0828916796875L12.292096875,6.6955516796875L11.449196875,7.0828916796875L11.851696875,6.2545516796875L11.449196875,5.4332216796875L11.449796875,5.4326416796875Z" fill="#387ED8" fill-opacity="1"/></g></g></svg>