<svg xmlns="http://www.w3.org/2000/svg" xmlns:xlink="http://www.w3.org/1999/xlink" fill="none" version="1.1" width="14" height="14" viewBox="0 0 14 14"><defs><clipPath id="master_svg0_679_1603"><rect x="0" y="0" width="14" height="14" rx="0"/></clipPath></defs><g clip-path="url(#master_svg0_679_1603)"><g><path d="M1.8955078125,2.33337L1.8955078125,4.66671L1.8955619854,4.67366C1.8992780725,4.91208,2.0937058125,5.10421,2.3330078125,5.10421L2.3415398124999998,5.10413L4.3105578125,5.10413C4.5521778125,5.10413,4.7480578125,4.90825,4.7480578125,4.66663C4.7480578125,4.425,4.5521778125,4.22913,4.3105578125,4.22913L3.0972078124999998,4.22913Q3.6377278125,3.44892,4.450187812499999,2.92848Q5.6069278125,2.1875,6.9971078125,2.1875Q8.3928378125,2.1875,9.566177812500001,2.9298Q10.7084278125,3.65243,11.3090078125,4.86022L11.3095778125,4.86137C11.3834978125,5.01011,11.5352778125,5.10417,11.7013678125,5.10417L11.7163978125,5.10391C11.7788478125,5.1017600000000005,11.8401178125,5.086259999999999,11.8961078125,5.05846C12.0000078125,5.006819999999999,12.0791078125,4.91602,12.1161078125,4.80603C12.1312078125,4.76112,12.1389078125,4.71405,12.1389078125,4.66667L12.1388078125,4.65845C12.1376078125,4.5936699999999995,12.1220078125,4.52998,12.0931078125,4.4718800000000005L12.0926078125,4.4708000000000006Q11.3830678125,3.0438400000000003,10.0339878125,2.1903550000000003Q8.646377812499999,1.3125,6.9971078125,1.3125Q5.3507078125,1.3125,3.9782178125,2.191681Q3.2920378125000003,2.63123,2.7705078125,3.2265699999999997L2.7705078125,2.33337C2.7705078125,2.091749,2.5746328125,1.895874,2.3330078125,1.895874C2.0913828125,1.895874,1.8955078125,2.091749,1.8955078125,2.33337ZM4.4681978125,11.07024Q3.3255778124999997,10.34737,2.7247958125,9.138670000000001C2.6834088124999997,9.05539,2.6165588125,8.987459999999999,2.5339488125000003,8.944749999999999C2.5141178125,8.9345,2.4935318125,8.92578,2.4723688125,8.91866L2.4635898125,8.91582C2.4213228125,8.9026,2.3772938125,8.89587,2.3330078125,8.89587C2.2654488125,8.89587,2.1988068125,8.91152,2.1383068124999998,8.94159C2.1229158125,8.94923,2.1079888125,8.95778,2.0936038125,8.96719C1.9700031125,9.048,1.8955078125,9.1857,1.8955078125,9.33337C1.8955078125,9.40093,1.9111539125,9.46758,1.9412199125,9.52808Q2.6507618125,10.95586,4.0003978125,11.8097Q5.3880078125,12.6875,7.0372978125,12.6875Q8.6836878125,12.6875,10.0561678125,11.8084Q10.7422178125,11.3689,11.2636678125,10.7737L11.2636678125,11.6667C11.2636678125,11.9083,11.4595478125,12.1042,11.7011678125,12.1042C11.9428078125,12.1042,12.1387078125,11.9083,12.1387078125,11.6667L12.1387078125,9.36312C12.1393078125,9.35329,12.1397078125,9.34337,12.1397078125,9.33337C12.1397078125,9.091750000000001,11.9438078125,8.89587,11.7021678125,8.89587L9.7246078125,8.89587C9.4829878125,8.89587,9.2871078125,9.091750000000001,9.2871078125,9.33337C9.2871078125,9.575,9.4829878125,9.77087,9.7246078125,9.77087L10.9371978125,9.77087Q10.3966678125,10.55111,9.584197812500001,11.07156Q8.4274578125,11.8125,7.0372978125,11.8125Q5.6415478125,11.8125,4.4681978125,11.07024Z" fill-rule="evenodd" fill="#4E5969" fill-opacity="1"/></g></g></svg>